<?xml version="1.0" encoding="UTF-8"?>
<svg id="_レイヤー_2" data-name="レイヤー 2" xmlns="http://www.w3.org/2000/svg" viewBox="0 0 312.01 106.01">
  <defs>
    <style>
      .cls-1 {
        fill: none;
      }

      .cls-1, .cls-2 {
        stroke-width: 0px;
      }

      .cls-2 {
        fill: #0074c0;
      }
    </style>
  </defs>
  <g id="_レイヤー_1-2" data-name="レイヤー 1">
    <g id="Horizontal">
      <rect id="Safe_Area" data-name="Safe Area" class="cls-1" width="312.01" height="106.01"/>
      <g id="LOGO">
        <g id="SCALAR">
          <path class="cls-2" d="m115.48,46.1c-1.18-1.5-3.33-2.48-5.12-2.48s-4.03.61-4.03,2.88c0,1.9,1.71,2.51,4.43,3.37,3.9,1.26,8.93,2.93,8.93,8.65,0,6.63-5.32,9.59-11.01,9.59-4.1,0-8.25-1.5-10.76-4.15l4.55-4.64c1.38,1.74,3.94,3.05,6.21,3.05,2.11,0,3.98-.82,3.98-3.12s-2.2-2.88-5.98-4.1c-3.66-1.18-7.36-3.05-7.36-8.25,0-6.38,5.77-9.02,11.13-9.02,3.25,0,6.91,1.22,9.43,3.54l-4.43,4.67h.02Z"/>
          <path class="cls-2" d="m144.52,68.16c-8.86,0-15.47-6.17-15.47-15.19s6.82-15.12,15.61-15.12c4.03,0,8.37,1.46,10.76,4.22l-4.71,4.71c-1.31-1.79-3.61-2.64-5.81-2.64-4.83,0-8.29,3.73-8.29,8.82s3.37,8.81,8.16,8.81c2.72,0,4.87-1.22,6.09-2.93l4.83,4.55c-2.51,2.93-6.33,4.76-11.18,4.76Z"/>
          <path class="cls-2" d="m186.22,67.38l-2.23-5.65h-11.13l-2.11,5.65h-7.55l12.07-28.76h6.75l11.95,28.76h-7.74Zm-7.72-21.08l-3.66,9.87h7.24l-3.58-9.87Z"/>
          <path class="cls-2" d="m203.24,67.38v-28.76h6.99v22.71h11.13v6.05h-18.12Z"/>
          <path class="cls-2" d="m253.45,67.38l-2.23-5.65h-11.13l-2.11,5.65h-7.55l12.07-28.76h6.75l11.94,28.76h-7.74Zm-7.72-21.08l-3.66,9.87h7.24l-3.58-9.87Z"/>
          <path class="cls-2" d="m285.86,67.38l-6.21-11.42h-2.35v11.42h-6.82v-28.76h10.97c5.53,0,11.01,2.11,11.01,8.7,0,3.86-2.27,6.63-5.97,7.76l7.52,12.31h-8.14Zm-4.92-23.16h-3.7v6.7h3.3c2.23,0,5.04-.57,5.04-3.49,0-2.68-2.56-3.21-4.64-3.21Z"/>
        </g>
        <path id="Symbol" class="cls-2" d="m81.55,37.6l-2.38-4.1c-.29-.45-.67-.84-1.12-1.13l-7.94-4.59c-.39-.22-.72-.04-.72.41v5.33l-12.31-6.94,4.76-2.76c.23-.07.35-.32.28-.55-.04-.13-.15-.23-.28-.28l-7.96-4.58c-.48-.26-1-.39-1.54-.41h-4.73c-.54.01-1.06.16-1.54.41l-7.94,4.59c-.39.23-.39.6,0,.83l4.76,2.76-12.31,6.94v-5.33c0-.45-.33-.63-.72-.41l-7.94,4.59c-.45.29-.84.67-1.12,1.13l-2.37,4.1c-.24.48-.39,1-.41,1.54v9.18c0,.45.32.63.71.41l4.53-2.62v13.96l-4.53-2.62c-.39-.22-.71-.02-.71.41v9.18c.02.54.16,1.06.41,1.53l2.37,4.12c.28.45.67.83,1.12,1.11l7.94,4.59c.39.23.72.05.72-.41v-5.37l12.29,6.86-4.72,2.72c-.23.09-.34.34-.26.57.05.12.13.21.26.26l7.94,4.58c.48.26,1,.39,1.54.41h4.73c.54-.02,1.06-.16,1.54-.41l7.94-4.58c.23-.09.34-.34.26-.57-.05-.12-.13-.21-.26-.26l-4.73-2.73,12.18-6.85v5.28c0,.45.32.63.72.41l7.94-4.59c.45-.29.83-.67,1.12-1.13l2.38-4.1c.24-.48.39-1,.41-1.54v-9.18c0-.45-.32-.65-.72-.41l-4.42,2.55v-13.82l4.53,2.62c.39.23.71.05.71-.41v-9.18c-.02-.54-.16-1.06-.4-1.54v.02Zm-12.15-1.71v2.81c.02.54.16,1.06.41,1.54l1.22,2.11c.28.45.67.84,1.12,1.13l2.49,1.44v16.2l-2.62,1.51c-.45.29-.84.67-1.12,1.12l-.06.12-7.47-4.33v-7.65c0-.31-.17-.59-.43-.74l-.13-.07c-.27-.15-.59-.15-.85,0l-2.09,1.21v-4.99l-4.31-2.49,2.09-1.21c.26-.17.41-.44.43-.74v-.15c-.02-.31-.18-.57-.43-.74l-6.63-3.82v-8.65h.21c.54-.02,1.06-.17,1.54-.41l2.27-1.32,14.39,8.13h-.02Zm-24.16,19.36l-3.09-1.77v-4.97l4.33-2.49,3.07,1.77c.23.13.43.24.43.24,0,0,.18-.11.43-.24l3.07-1.77,4.31,2.49v4.99l-3.07,1.78c-.23.13-.43.24-.43.24v4.05l-4.31,2.49-4.33-2.5v-4.04l-.43-.26v-.02Zm-19.92-10.33l2.49-1.44c.45-.29.84-.67,1.12-1.13l1.23-2.11c.24-.48.39-1,.41-1.54v-2.81l14.37-8.13,2.27,1.32c.48.24,1,.39,1.54.41h.2v8.65l-6.63,3.82c-.26.17-.41.44-.43.74v.15c.01.31.18.59.43.74l2.09,1.21-4.33,2.49v4.97l-2.09-1.2c-.27-.13-.59-.13-.87,0l-.13.07c-.26.17-.41.44-.43.74v7.64l-7.6,4.39-.06-.12c-.29-.45-.67-.83-1.12-1.12l-2.49-1.44v-16.34l.02.02Zm29.72,33.36l-2.28-1.32c-.48-.24-1-.39-1.54-.41h-2.44c-.54.02-1.06.16-1.54.41l-2.29,1.33-14.36-8.03v-2.78c-.02-.54-.17-1.05-.41-1.53l-.12-.23,7.59-4.39,6.63,3.82c.27.15.59.15.87,0l.13-.07c.26-.17.41-.44.43-.74v-2.4l4.33,2.49,4.31-2.49v2.4c.01.31.17.59.43.74l.13.07c.27.15.6.15.87,0l6.63-3.82,7.47,4.33-.12.22c-.24.48-.39,1-.41,1.54v2.87l-14.25,7.99h-.02Z"/>
      </g>
    </g>
  </g>
</svg>